<svg width="18" height="18" viewBox="0 0 18 18" fill="none" xmlns="http://www.w3.org/2000/svg">
    <path d="M1.5 14.8332V7.39155C1.49996 7.11723 1.56763 6.84714 1.69701 6.60525C1.82639 6.36335 2.01347 6.15713 2.24167 6.00489L8.075 2.11655C8.34888 1.93382 8.67075 1.8363 9 1.8363C9.32925 1.8363 9.65112 1.93382 9.925 2.11655L15.7583 6.00489C15.9865 6.15713 16.1736 6.36335 16.303 6.60525C16.4324 6.84714 16.5 7.11723 16.5 7.39155V14.8332M1.5 14.8332C1.5 15.2752 1.67559 15.6992 1.98816 16.0117C2.30072 16.3243 2.72464 16.4999 3.16667 16.4999H14.8333C15.2754 16.4999 15.6993 16.3243 16.0118 16.0117C16.3244 15.6992 16.5 15.2752 16.5 14.8332M1.5 14.8332L7.125 11.0832M16.5 14.8332L10.875 11.0832M7.125 11.0832L1.5 7.33322M7.125 11.0832L8.075 11.7166C8.34888 11.8993 8.67075 11.9968 9 11.9968C9.32925 11.9968 9.65112 11.8993 9.925 11.7166L10.875 11.0832M10.875 11.0832L16.5 7.33322" stroke="#96A7AF" stroke-width="2" stroke-linecap="round" stroke-linejoin="round"/>
</svg>
